<?xml version="1.0" encoding="UTF-8" standalone="no"?>
<!-- Created with Inkscape (http://www.inkscape.org/) -->

<svg
   xmlns:dc="http://purl.org/dc/elements/1.1/"
   xmlns:cc="http://creativecommons.org/ns#"
   xmlns:rdf="http://www.w3.org/1999/02/22-rdf-syntax-ns#"
   xmlns:svg="http://www.w3.org/2000/svg"
   xmlns="http://www.w3.org/2000/svg"
   xmlns:sodipodi="http://sodipodi.sourceforge.net/DTD/sodipodi-0.dtd"
   xmlns:inkscape="http://www.inkscape.org/namespaces/inkscape"
   width="210mm"
   height="297mm"
   viewBox="0 0 744.09448819 1052.3622047"
   id="svg2"
   version="1.1"
   inkscape:version="0.91 r13725"
   sodipodi:docname="logoEye.svg">
  <defs
     id="defs4" />
  <sodipodi:namedview
     id="base"
     pagecolor="#ffffff"
     bordercolor="#666666"
     borderopacity="1.0"
     inkscape:pageopacity="0.0"
     inkscape:pageshadow="2"
     inkscape:zoom="0.7"
     inkscape:cx="14.337662"
     inkscape:cy="604.49052"
     inkscape:document-units="px"
     inkscape:current-layer="layer4"
     showgrid="false"
     inkscape:window-width="1920"
     inkscape:window-height="1027"
     inkscape:window-x="0"
     inkscape:window-y="0"
     inkscape:window-maximized="1" />
  <metadata
     id="metadata7">
    <rdf:RDF>
      <cc:Work
         rdf:about="">
        <dc:format>image/svg+xml</dc:format>
        <dc:type
           rdf:resource="http://purl.org/dc/dcmitype/StillImage" />
        <dc:title></dc:title>
      </cc:Work>
    </rdf:RDF>
  </metadata>
  <g
     inkscape:label="Layer 1"
     inkscape:groupmode="layer"
     id="layer1">
    <path
       style="fill:#000000;fill-rule:evenodd;stroke:#000000;stroke-width:1px;stroke-linecap:butt;stroke-linejoin:miter;stroke-opacity:1;fill-opacity:1"
       d="m 40,582.3622 c 80.91521,-15.69324 67.37059,-61.21423 84.28571,-137.14285 82.21905,-77.97622 279.69099,-123.86262 377.14286,-11.42857 18.03785,30.24445 48.67627,27.72742 85.71429,8.57142 C 529.27152,615.0781 324.78515,695.8662 40,582.3622 Z"
       id="path8068"
       inkscape:connector-curvature="0"
       sodipodi:nodetypes="ccccc" />
  </g>
  <g
     inkscape:groupmode="layer"
     id="layer2"
     inkscape:label="Layer 2">
    <path
       style="fill:#ffffff;fill-opacity:1;fill-rule:evenodd;stroke:#000000;stroke-width:1px;stroke-linecap:butt;stroke-linejoin:miter;stroke-opacity:1"
       d="m 494.28571,479.50506 c 3.23381,-138.27904 -280.43728,-86.97113 -312.85714,-30 -38.4996,71.4678 -44.46503,66.50591 20,145.71429 97.57068,16.16445 286.74002,6.03632 290,-91.42857"
       id="path8073"
       inkscape:connector-curvature="0"
       sodipodi:nodetypes="cccc" />
  </g>
  <g
     inkscape:groupmode="layer"
     id="layer3"
     inkscape:label="Layer 3">
    <path
       style="fill:#ff3100;fill-opacity:1;fill-rule:evenodd;stroke:#000000;stroke-width:1px;stroke-linecap:butt;stroke-linejoin:miter;stroke-opacity:1"
       d="M 388.57143,575.21934 C 425.6368,521.43263 490.55817,429.41448 325.71429,419.50506 229.53197,423.5089 206.29025,489.4978 207.14286,528.07649 c 80.13296,105.66713 153.11073,67.77825 181.42857,47.14285 z"
       id="path8076"
       inkscape:connector-curvature="0"
       sodipodi:nodetypes="cccc" />
    <path
       style="fill:#000000;fill-rule:evenodd;stroke:#000000;stroke-width:1px;stroke-linecap:butt;stroke-linejoin:miter;stroke-opacity:1;fill-opacity:1"
       d="m 325.71429,435.21935 c -7.97702,31.52166 -16.38978,52.28309 -17.14286,80 0.75448,35.00928 6.75586,39.53135 21.42857,65.71428 10.69126,-32.23117 14.30278,-29.02628 11.42857,-61.42857 -4.71375,-36.54896 -1.97236,-42.45005 -15.71428,-84.28571 z"
       id="path8078"
       inkscape:connector-curvature="0"
       sodipodi:nodetypes="ccccc" />
  </g>
  <g
     inkscape:groupmode="layer"
     id="layer4"
     inkscape:label="Layer 4">
    <path
       style="fill:#000000;fill-opacity:1;fill-rule:evenodd;stroke:#000000;stroke-width:1px;stroke-linecap:butt;stroke-linejoin:miter;stroke-opacity:1"
       d="m 148.57143,450.93363 c 18.71449,-58.27161 -4.61282,-78.70561 -100.000001,-34.28571 51.766221,-92.0479 112.420391,-37.44455 171.428571,-10 46.10116,-36.66667 94.60729,-91.20783 -97.14286,-110 49.3379,-6.02738 175.54796,-51.85915 202.85715,74.28572 l 52.85714,9.99999 c 165.36199,-75.85834 40.23078,-98.38531 -111.42858,-120 305.42314,-30.82646 233.47223,62.08997 207.14286,151.42857 -215.28105,-64.21091 -234.36593,13.2754 -325.71428,38.57143 z"
       id="path8081"
       inkscape:connector-curvature="0"
       sodipodi:nodetypes="ccccccccc" />
  </g>
</svg>
